<svg xmlns="http://www.w3.org/2000/svg" xmlns:svg="http://www.w3.org/2000/svg" xmlns:xlink="http://www.w3.org/1999/xlink" id="svg4940" width="497mm" height="383mm" version="1.1" viewBox="0 0 1761.022 1357.086"><defs id="defs4942"><marker id="marker5998" orient="auto" refX="0" refY="0" style="overflow:visible"><path id="path6000" d="M 0.0,0.0 L 5.0,-5.0 L -12.5,0.0 L 5.0,5.0 L 0.0,0.0 z" style="fill-rule:evenodd;stroke:#000;stroke-width:1pt;stroke-opacity:1;fill:#000;fill-opacity:1" transform="scale(0.8) rotate(180) translate(12.5,0)"/></marker><marker style="overflow:visible" id="marker5964" orient="auto" refX="0" refY="0"><path transform="scale(0.8) rotate(180) translate(12.5,0)" style="fill-rule:evenodd;stroke:#000;stroke-width:1pt;stroke-opacity:1;fill:#000;fill-opacity:1" id="path5966" d="M 0.0,0.0 L 5.0,-5.0 L -12.5,0.0 L 5.0,5.0 L 0.0,0.0 z"/></marker><marker id="Arrow1Lend" orient="auto" refX="0" refY="0" style="overflow:visible"><path id="path5599" d="M 0.0,0.0 L 5.0,-5.0 L -12.5,0.0 L 5.0,5.0 L 0.0,0.0 z" style="fill-rule:evenodd;stroke:#000;stroke-width:1pt;stroke-opacity:1;fill:#000;fill-opacity:1" transform="scale(0.8) rotate(180) translate(12.5,0)"/></marker></defs><metadata id="metadata4945"/><g id="layer1" transform="translate(0,304.72471)"><g id="g5504"><ellipse id="path5492" cx="-652.857" cy="109.505" rx="70" ry="68.571" style="opacity:1;fill:#ff7f2a;fill-opacity:1;fill-rule:evenodd;stroke:none;stroke-width:0;stroke-linecap:round;stroke-linejoin:round;stroke-miterlimit:4;stroke-dasharray:none"/><path id="path5494" d="m -700.35742,133.99444 43.75,0 0,-51.428564 43.74999,0" style="fill:none;fill-rule:evenodd;stroke:#000;stroke-width:6.06217432;stroke-linecap:round;stroke-linejoin:round;stroke-miterlimit:4;stroke-dasharray:none;stroke-opacity:1"/></g><use id="use5496" width="100%" height="100%" x="0" y="0" transform="translate(-674.04802,-46.481863)" xlink:href="#path5492"/><rect style="opacity:.29100004;fill:#0f0;fill-opacity:1;fill-rule:evenodd;stroke:none;stroke-width:0;stroke-linecap:round;stroke-linejoin:round;stroke-miterlimit:4;stroke-dasharray:none" id="rect5490" width="877.143" height="760" x="445.714" y="35.219"/><use id="use5508" width="100%" height="100%" x="0" y="0" transform="translate(1254.2852,217.14273)" xlink:href="#g5504"/><use id="use5510" width="100%" height="100%" x="0" y="0" transform="translate(185.71422,2.8571415)" xlink:href="#use5508"/><use id="use5512" width="100%" height="100%" x="0" y="0" transform="translate(1925.7135,505.71402)" xlink:href="#use5496"/><use id="use5514" width="100%" height="100%" x="0" y="0" transform="translate(182.85707,2.8571415)" xlink:href="#use5512"/><use id="use5516" width="100%" height="100%" x="0" y="0" transform="translate(182.85708,2.8571415)" xlink:href="#use5514"/><path style="fill:none;fill-rule:evenodd;stroke:#000;stroke-width:3.59999847;stroke-linecap:butt;stroke-linejoin:miter;stroke-miterlimit:4;stroke-dasharray:none;stroke-opacity:1" id="path5518" d="m 592.85699,395.21878 0,110 159.99982,-110.00023"/><path style="fill:none;fill-rule:evenodd;stroke:#000;stroke-width:3.59999847;stroke-linecap:butt;stroke-linejoin:miter;stroke-miterlimit:4;stroke-dasharray:none;stroke-opacity:1" id="path5520" d="m 622.85699,395.21878 160,110 -1.9e-4,-110.00023"/><path style="fill:none;fill-rule:evenodd;stroke:#000;stroke-width:3.59999847;stroke-linecap:butt;stroke-linejoin:miter;stroke-miterlimit:4;stroke-dasharray:none;stroke-opacity:1" id="path5522" d="m 642.85699,385.21878 320,120 -150.0002,-110.00023"/><use id="use5524" width="100%" height="100%" x="0" y="0" transform="translate(168.69541,1.0101521)" xlink:href="#use5516"/><path style="fill:none;fill-rule:evenodd;stroke:#000;stroke-width:3.59999847;stroke-linecap:butt;stroke-linejoin:miter;stroke-miterlimit:4;stroke-dasharray:none;stroke-opacity:1" id="path5526" d="m 652.85699,375.21878 480.00001,130 -310.00022,-120.00022"/><rect style="opacity:.74;fill:#0ff;fill-opacity:1;fill-rule:evenodd;stroke:none;stroke-width:3.5999999;stroke-linecap:round;stroke-linejoin:round;stroke-miterlimit:4;stroke-dasharray:none" id="rect5560" width="91.429" height="322.857" x="148.571" y="366.647"/><path style="opacity:.00400002;fill:#ff0;fill-opacity:1;fill-rule:evenodd;stroke:none;stroke-width:3.5999999;stroke-linecap:round;stroke-linejoin:round;stroke-miterlimit:4;stroke-dasharray:none" id="path5566" d="m 202.19515,835.77025 c -12.43955,-0.76892 -32.44762,-0.80669 -32.34375,16.46763 -3.42874,104.4254 -3.47368,209.09752 0.173,313.51562 3.1331,19.931 29.62484,12.4695 43.51562,14.2299 13.75766,-2.269 34.34321,4.4032 43.44866,-8.7779 5.91246,-87.6108 3.2205,-175.73242 2.89739,-263.53593 -1.4234,-21.72608 1.1992,-44.38605 -3.96882,-65.56003 -14.70847,-10.49409 -36.73179,-4.42026 -53.7221,-6.33929 z"/><path style="opacity:.00400002;fill:#ff0;fill-opacity:1;fill-rule:evenodd;stroke:none;stroke-width:3.5999999;stroke-linecap:round;stroke-linejoin:round;stroke-miterlimit:4;stroke-dasharray:none" id="path5568" d="m 600.2588,253.26486 c -41.38206,-0.59134 -78.69631,37.89865 -73.10268,79.7154 1.23064,30.72504 26.81512,58.296 56.05469,65.27902 31.40803,6.62244 66.45323,-5.41065 82.71763,-34.09598 19.17152,-28.73916 12.18283,-69.21691 -14.29129,-90.98214 -13.4188,-13.78626 -32.22944,-20.77837 -51.37835,-19.9163 z"/><path style="fill:none;fill-rule:evenodd;stroke:#000;stroke-width:4.09999752;stroke-linecap:butt;stroke-linejoin:miter;stroke-miterlimit:4;stroke-dasharray:none;stroke-opacity:1;marker-end:url(#Arrow1Lend)" id="path5890" d="m 239.99969,509.50469 160,0 0,240 480,0 0,-80"/><path style="fill:none;fill-rule:evenodd;stroke:#000;stroke-width:4.09999752;stroke-linecap:butt;stroke-linejoin:miter;stroke-miterlimit:4;stroke-dasharray:none;stroke-opacity:1;marker-end:url(#marker5998)" id="path5948" d="m 679.99969,229.50469 0,-160 240,0 0,-80"/><path style="fill:none;fill-rule:evenodd;stroke:#000;stroke-width:4.09999752;stroke-linecap:butt;stroke-linejoin:miter;stroke-miterlimit:4;stroke-dasharray:none;stroke-opacity:1;marker-end:url(#marker5964)" id="path5950" d="m 919.99969,69.50469 360.00001,0 0,160 200,0"/><text xml:space="preserve" style="font-style:normal;font-weight:400;font-size:54.64873505px;line-height:828.99999619%;font-family:sans-serif;letter-spacing:0;word-spacing:0;fill:#000;fill-opacity:1;stroke:none;stroke-width:1px;stroke-linecap:butt;stroke-linejoin:miter;stroke-opacity:1" id="text6032" x="153.637" y="535.645" transform="scale(0.99570294,1.0043156)"><tspan id="tspan6034" x="153.637" y="535.645">h<tspan style="font-size:35.52165604px;baseline-shift:sub" id="tspan6044">t-1</tspan></tspan></text><path style="opacity:1;fill:#f95;fill-opacity:1;fill-rule:evenodd;stroke:none;stroke-width:3.5999999;stroke-linecap:round;stroke-linejoin:round;stroke-miterlimit:4;stroke-dasharray:none" id="path5564" d="m 809.8377,1018.5023 c 50.34211,3.3699 102.00628,0.4828 152.85714,1.4449 57.93116,-0.6781 116.51886,1.3571 174.03906,-1.0192 8.5481,-11.9359 1.4816,-30.30205 3.7901,-44.72183 -2.6185,-12.17136 8.8477,-39.28114 -14.9721,-35.71026 -103.8095,0 -207.61896,0 -311.42849,0 -13.67207,8.76555 -3.04084,29.58429 -6.40066,43.23337 1.18646,12.10407 -2.5118,25.34142 2.11495,36.77302 z"/><text xml:space="preserve" style="font-style:normal;font-weight:400;font-size:71.32362366px;line-height:828.99999619%;font-family:sans-serif;letter-spacing:0;word-spacing:0;fill:#000;fill-opacity:1;stroke:none;stroke-width:1px;stroke-linecap:butt;stroke-linejoin:miter;stroke-opacity:1" id="text6038" x="926.769" y="1004.956" transform="scale(1.0101968,0.98990612)"><tspan id="tspan6040" x="926.769" y="1004.956">x<tspan style="font-size:46.36032867px;baseline-shift:sub" id="tspan6042">t</tspan></tspan></text><use id="use6100" width="100%" height="100%" x="0" y="0" transform="translate(1345.7136,-279.99984)" xlink:href="#rect5560"/><text xml:space="preserve" style="font-style:normal;font-weight:400;font-size:61.36034775px;line-height:828.99999619%;font-family:sans-serif;letter-spacing:0;word-spacing:0;fill:#000;fill-opacity:1;stroke:none;stroke-width:1px;stroke-linecap:butt;stroke-linejoin:miter;stroke-opacity:1" id="text6102" x="1490.935" y="258.968" transform="scale(1.0085791,0.99149389)"><tspan id="tspan6104" x="1490.935" y="258.968">h<tspan style="font-size:39.88420105px;baseline-shift:sub" id="tspan6106">t</tspan></tspan></text><path style="fill:none;fill-rule:evenodd;stroke:#000;stroke-width:4.09999756;stroke-linecap:butt;stroke-linejoin:miter;stroke-opacity:1;stroke-miterlimit:4;stroke-dasharray:none;marker-end:url(#marker5998)" id="path6108" d="m 959.99969,932.36199 0,-240.00003"/><text xml:space="preserve" style="font-style:normal;font-weight:400;font-size:70.85655975px;line-height:828.99999619%;font-family:sans-serif;letter-spacing:0;word-spacing:0;fill:#000;fill-opacity:1;stroke:none;stroke-width:1px;stroke-linecap:butt;stroke-linejoin:miter;stroke-opacity:1" id="text6172" x="1190.091" y="262.487" transform="scale(0.80525444,1.2418435)"><tspan id="tspan6174" x="1190.091" y="262.487">RNN Cell</tspan></text><path style="opacity:.73999999;fill:#0ff;fill-opacity:0;fill-rule:evenodd;stroke:none;stroke-width:4.0999999;stroke-linecap:round;stroke-linejoin:round;stroke-miterlimit:4;stroke-dasharray:none" id="path4274" d="m 750.48658,182.59349 c -9.81638,23.97869 -4.08796,51.45467 -3.05804,76.67411 2.69624,19.65942 27.75386,10.56508 40.88505,13.1485 97.1911,0.28743 194.59655,1.98102 291.65961,-2.13846 13.8841,-10.12555 6.6175,-31.42312 8.8393,-46.09932 -1.7957,-14.39589 3.5088,-35.15232 -10.4353,-43.69978 -107.71205,0 -215.4241,0 -323.13616,0 l -2.61051,1.16125 -2.14395,0.9537 z m 183.76116,31.17746 c 6.77808,-2.0179 11.99673,5.5693 3.29241,6.75781 -6.32926,5.85711 -3.63545,-2.16274 -5.43527,-6.91406 l 2.14286,0.15625 z m -77.69532,-0.0781 c 12.80912,-0.36531 6.86055,26.29011 -5.69754,16.91965 -5.61988,-4.94535 -3.57861,-18.39877 5.69754,-16.91965 z" transform="translate(-3.051756e-4,-304.72471)"/><path style="opacity:.73999999;fill:#0ff;fill-opacity:0;fill-rule:evenodd;stroke:none;stroke-width:4.0999999;stroke-linecap:round;stroke-linejoin:round;stroke-miterlimit:4;stroke-dasharray:none" id="path4276" d="m 750.48658,182.59349 c -9.81638,23.97869 -4.08796,51.45467 -3.05804,76.67411 2.69624,19.65942 27.75386,10.56508 40.88505,13.1485 97.1911,0.28743 194.59655,1.98102 291.65961,-2.13846 13.8841,-10.12555 6.6175,-31.42312 8.8393,-46.09932 -1.7957,-14.39589 3.5088,-35.15232 -10.4353,-43.69978 -107.71205,0 -215.4241,0 -323.13616,0 l -2.61051,1.16125 -2.14395,0.9537 z m 183.76116,31.17746 c 6.77808,-2.0179 11.99673,5.5693 3.29241,6.75781 -6.32926,5.85711 -3.63545,-2.16274 -5.43527,-6.91406 l 2.14286,0.15625 z m -77.69532,-0.0781 c 12.80912,-0.36531 6.86055,26.29011 -5.69754,16.91965 -5.61988,-4.94535 -3.57861,-18.39877 5.69754,-16.91965 z" transform="translate(-3.051756e-4,-304.72471)"/><path style="opacity:.73999999;fill:#0ff;fill-opacity:0;fill-rule:evenodd;stroke:none;stroke-width:4.0999999;stroke-linecap:round;stroke-linejoin:round;stroke-miterlimit:4;stroke-dasharray:none" id="path4278" d="m 750.48658,182.59349 c -9.81638,23.97869 -4.08796,51.45467 -3.05804,76.67411 2.69624,19.65942 27.75386,10.56508 40.88505,13.1485 97.1911,0.28743 194.59655,1.98102 291.65961,-2.13846 13.8841,-10.12555 6.6175,-31.42312 8.8393,-46.09932 -1.7957,-14.39589 3.5088,-35.15232 -10.4353,-43.69978 -107.71205,0 -215.4241,0 -323.13616,0 l -2.61051,1.16125 -2.14395,0.9537 z m 183.76116,31.17746 c 6.77808,-2.0179 11.99673,5.5693 3.29241,6.75781 -6.32926,5.85711 -3.63545,-2.16274 -5.43527,-6.91406 l 2.14286,0.15625 z m -77.69532,-0.0781 c 12.80912,-0.36531 6.86055,26.29011 -5.69754,16.91965 -5.61988,-4.94535 -3.57861,-18.39877 5.69754,-16.91965 z" transform="translate(-3.051756e-4,-304.72471)"/><path style="opacity:.73999999;fill:#0ff;fill-opacity:0;fill-rule:evenodd;stroke:none;stroke-width:4.0999999;stroke-linecap:round;stroke-linejoin:round;stroke-miterlimit:4;stroke-dasharray:none" id="path4280" d="m 750.48658,182.59349 c -9.81638,23.97869 -4.08796,51.45467 -3.05804,76.67411 2.69624,19.65942 27.75386,10.56508 40.88505,13.1485 97.1911,0.28743 194.59655,1.98102 291.65961,-2.13846 13.8841,-10.12555 6.6175,-31.42312 8.8393,-46.09932 -1.7957,-14.39589 3.5088,-35.15232 -10.4353,-43.69978 -107.71205,0 -215.4241,0 -323.13616,0 l -2.61051,1.16125 -2.14395,0.9537 z m 183.76116,31.17746 c 6.77808,-2.0179 11.99673,5.5693 3.29241,6.75781 -6.32926,5.85711 -3.63545,-2.16274 -5.43527,-6.91406 l 2.14286,0.15625 z m -77.69532,-0.0781 c 12.80912,-0.36531 6.86055,26.29011 -5.69754,16.91965 -5.61988,-4.94535 -3.57861,-18.39877 5.69754,-16.91965 z" transform="translate(-3.051756e-4,-304.72471)"/><path style="opacity:.73999999;fill:#0ff;fill-opacity:0;fill-rule:evenodd;stroke:none;stroke-width:4.0999999;stroke-linecap:round;stroke-linejoin:round;stroke-miterlimit:4;stroke-dasharray:none" id="path4282" d="m 750.48658,182.59349 c -9.81638,23.97869 -4.08796,51.45467 -3.05804,76.67411 2.69624,19.65942 27.75386,10.56508 40.88505,13.1485 97.1911,0.28743 194.59655,1.98102 291.65961,-2.13846 13.8841,-10.12555 6.6175,-31.42312 8.8393,-46.09932 -1.7957,-14.39589 3.5088,-35.15232 -10.4353,-43.69978 -107.71205,0 -215.4241,0 -323.13616,0 l -2.61051,1.16125 -2.14395,0.9537 z m 183.76116,31.17746 c 6.77808,-2.0179 11.99673,5.5693 3.29241,6.75781 -6.32926,5.85711 -3.63545,-2.16274 -5.43527,-6.91406 l 2.14286,0.15625 z m -77.69532,-0.0781 c 12.80912,-0.36531 6.86055,26.29011 -5.69754,16.91965 -5.61988,-4.94535 -3.57861,-18.39877 5.69754,-16.91965 z" transform="translate(-3.051756e-4,-304.72471)"/><path style="opacity:.73999999;fill:#0ff;fill-opacity:0;fill-rule:evenodd;stroke:none;stroke-width:4.0999999;stroke-linecap:round;stroke-linejoin:round;stroke-miterlimit:4;stroke-dasharray:none" id="path4284" d="m 750.48658,182.59349 c -9.81638,23.97869 -4.08796,51.45467 -3.05804,76.67411 2.69624,19.65942 27.75386,10.56508 40.88505,13.1485 97.1911,0.28743 194.59655,1.98102 291.65961,-2.13846 13.8841,-10.12555 6.6175,-31.42312 8.8393,-46.09932 -1.7957,-14.39589 3.5088,-35.15232 -10.4353,-43.69978 -107.71205,0 -215.4241,0 -323.13616,0 l -2.61051,1.16125 -2.14395,0.9537 z m 183.76116,31.17746 c 6.77808,-2.0179 11.99673,5.5693 3.29241,6.75781 -6.32926,5.85711 -3.63545,-2.16274 -5.43527,-6.91406 l 2.14286,0.15625 z m -77.69532,-0.0781 c 12.80912,-0.36531 6.86055,26.29011 -5.69754,16.91965 -5.61988,-4.94535 -3.57861,-18.39877 5.69754,-16.91965 z" transform="translate(-3.051756e-4,-304.72471)"/><path style="opacity:.73999999;fill:#00f;fill-opacity:0;fill-rule:evenodd;stroke:none;stroke-width:4.0999999;stroke-linecap:round;stroke-linejoin:round;stroke-miterlimit:4;stroke-dasharray:none" id="path4286" d="m 750.48658,179.73635 c -9.81638,23.97869 -4.08796,51.45467 -3.05804,76.67411 2.69624,19.65942 27.75386,10.56508 40.88505,13.14849 97.1911,0.28744 194.59655,1.98102 291.65961,-2.13845 13.8841,-10.12556 6.6175,-31.42312 8.8393,-46.09933 -1.7957,-14.39588 3.5088,-35.15231 -10.4353,-43.69978 -107.71205,0 -215.4241,0 -323.13616,0 l -2.61051,1.16125 -2.14395,0.95371 z m 183.76116,34.0346 c 6.77808,-2.0179 11.99673,5.5693 3.29241,6.75781 -6.32926,5.85711 -3.63545,-2.16274 -5.43527,-6.91406 l 2.14286,0.15625 z m -77.69532,-0.0781 c 12.80912,-0.36531 6.86055,26.29011 -5.69754,16.91965 -5.61988,-4.94535 -3.57861,-18.39877 5.69754,-16.91965 z" transform="translate(-3.051756e-4,-304.72471)"/><path style="opacity:.73999999;fill:#00f;fill-opacity:0;fill-rule:evenodd;stroke:none;stroke-width:4.0999999;stroke-linecap:round;stroke-linejoin:round;stroke-miterlimit:4;stroke-dasharray:none" id="path4288" d="m 750.48658,179.73635 c -9.81638,23.97869 -4.08796,51.45467 -3.05804,76.67411 2.69624,19.65942 27.75386,10.56508 40.88505,13.14849 97.1911,0.28744 194.59655,1.98102 291.65961,-2.13845 13.8841,-10.12556 6.6175,-31.42312 8.8393,-46.09933 -1.7957,-14.39588 3.5088,-35.15231 -10.4353,-43.69978 -107.71205,0 -215.4241,0 -323.13616,0 l -2.61051,1.16125 -2.14395,0.95371 z m 183.76116,34.0346 c 6.77808,-2.0179 11.99673,5.5693 3.29241,6.75781 -6.32926,5.85711 -3.63545,-2.16274 -5.43527,-6.91406 l 2.14286,0.15625 z m -77.69532,-0.0781 c 12.80912,-0.36531 6.86055,26.29011 -5.69754,16.91965 -5.61988,-4.94535 -3.57861,-18.39877 5.69754,-16.91965 z" transform="translate(-3.051756e-4,-304.72471)"/><path style="opacity:.73999999;fill:#00f;fill-opacity:0;fill-rule:evenodd;stroke:none;stroke-width:4.0999999;stroke-linecap:round;stroke-linejoin:round;stroke-miterlimit:4;stroke-dasharray:none" id="path4290" d="m 750.48658,179.73635 c -9.81638,23.97869 -4.08796,51.45467 -3.05804,76.67411 2.69624,19.65942 27.75386,10.56508 40.88505,13.14849 97.1911,0.28744 194.59655,1.98102 291.65961,-2.13845 13.8841,-10.12556 6.6175,-31.42312 8.8393,-46.09933 -1.7957,-14.39588 3.5088,-35.15231 -10.4353,-43.69978 -107.71205,0 -215.4241,0 -323.13616,0 l -2.61051,1.16125 -2.14395,0.95371 z m 183.76116,34.0346 c 6.77808,-2.0179 11.99673,5.5693 3.29241,6.75781 -6.32926,5.85711 -3.63545,-2.16274 -5.43527,-6.91406 l 2.14286,0.15625 z m -77.69532,-0.0781 c 12.80912,-0.36531 6.86055,26.29011 -5.69754,16.91965 -5.61988,-4.94535 -3.57861,-18.39877 5.69754,-16.91965 z" transform="translate(-3.051756e-4,-304.72471)"/><ellipse style="opacity:.49400008;fill:purple;fill-opacity:.97687857;fill-rule:evenodd;stroke:none;stroke-width:4.0999999;stroke-linecap:round;stroke-linejoin:round;stroke-miterlimit:4;stroke-dasharray:none" id="path4308" cx="917.143" cy="-104.781" rx="80" ry="74.286"/><text xml:space="preserve" style="font-style:normal;font-weight:400;font-size:71.24034119px;line-height:828.99999619%;font-family:sans-serif;letter-spacing:0;word-spacing:0;fill:#000;fill-opacity:1;stroke:none;stroke-width:1px;stroke-linecap:butt;stroke-linejoin:miter;stroke-opacity:1" id="text4314" x="919.936" y="-91.112" transform="scale(0.96187644,1.0396346)"><tspan id="tspan4316" x="919.936" y="-91.112">y<tspan style="font-size:46.30619812px;baseline-shift:sub" id="tspan4318">t</tspan></tspan></text></g></svg>