<svg xmlns="http://www.w3.org/2000/svg" xmlns:svg="http://www.w3.org/2000/svg" xmlns:xlink="http://www.w3.org/1999/xlink" id="svg2" width="334mm" height="367mm" version="1.1" viewBox="0 0 1183.465 1300.393"><defs id="defs4"><marker id="marker20574" orient="auto" refX="0" refY="0" style="overflow:visible"><path id="path20576" d="M 0.0,0.0 L 5.0,-5.0 L -12.5,0.0 L 5.0,5.0 L 0.0,0.0 z" style="fill-rule:evenodd;stroke:#000;stroke-width:1pt;stroke-opacity:1;fill:#000;fill-opacity:1" transform="scale(0.8) rotate(180) translate(12.5,0)"/></marker><marker id="marker15607" orient="auto" refX="0" refY="0" style="overflow:visible"><path id="path15609" d="M 0.0,0.0 L 5.0,-5.0 L -12.5,0.0 L 5.0,5.0 L 0.0,0.0 z" style="fill-rule:evenodd;stroke:#000;stroke-width:1pt;stroke-opacity:1;fill:#000;fill-opacity:1" transform="scale(0.8) rotate(180) translate(12.5,0)"/></marker><marker id="marker15152" orient="auto" refX="0" refY="0" style="overflow:visible"><path id="path11100" d="M 0.0,0.0 L 5.0,-5.0 L -12.5,0.0 L 5.0,5.0 L 0.0,0.0 z" style="fill-rule:evenodd;stroke:#000;stroke-width:1pt;stroke-opacity:1;fill:#000;fill-opacity:1" transform="scale(0.8) rotate(180) translate(12.5,0)"/></marker><linearGradient id="linearGradient11007"><stop style="stop-color:#000;stop-opacity:1" id="stop11009" offset="0"/><stop style="stop-color:#000;stop-opacity:0" id="stop11011" offset="1"/></linearGradient><marker id="Arrow1Lend" orient="auto" refX="0" refY="0" style="overflow:visible"><path id="path5595" d="M 0,0 5,-5 -12.5,0 5,5 0,0 Z" style="fill:#000;fill-opacity:1;fill-rule:evenodd;stroke:#000;stroke-width:1pt;stroke-opacity:1" transform="matrix(-0.8,0,0,-0.8,-10,0)"/></marker><radialGradient id="radialGradient11017" cx="581.429" cy="483.791" r="147.786" fx="581.429" fy="483.791" gradientTransform="matrix(1,0,0,0.77767035,31.4286,-12.43899)" gradientUnits="userSpaceOnUse" xlink:href="#linearGradient11007"/></defs><metadata id="metadata7"/><g id="layer1" transform="translate(0,248.02972)"><rect style="fill:#ff8080;fill-opacity:1;fill-rule:nonzero;stroke:url(#radialGradient11017);stroke-width:0;stroke-linejoin:round;stroke-miterlimit:4;stroke-dasharray:none" id="rect8042" width="288.571" height="222.857" x="468.571" y="252.362"/><ellipse style="fill:#ff8080;fill-opacity:1;fill-rule:nonzero;stroke-width:0;stroke-linecap:round;stroke-linejoin:round;stroke-miterlimit:4;stroke-dasharray:none" id="path11023" cx="627.143" cy="758.078" rx="81.429" ry="74.286"/><path style="fill:#ff7f2a;fill-opacity:1;fill-rule:nonzero;stroke-width:0;stroke-linecap:round;stroke-linejoin:round;stroke-miterlimit:4;stroke-dasharray:none" id="path11025" d="m 621.38616,680.8222 c -43.73575,-0.84852 -87.16655,36.22915 -83.31473,81.89729 -1.23925,48.4201 50.66862,82.4022 95.61942,75.2232 49.70988,-1.7028 91.94502,-58.0888 70.34598,-105.36826 -13.75034,-31.98432 -48.01284,-52.86583 -82.65067,-51.75223 z"/><use id="use11031" width="100%" height="100%" x="0" y="0" transform="translate(701.14306,-2.0000006)" xlink:href="#path11027" style="fill:#fca"/><path style="fill:none;fill-rule:evenodd;stroke:#000;stroke-width:1px;stroke-linecap:butt;stroke-linejoin:miter;stroke-opacity:1" id="path11083" d="m -1200,498.07775 c 20.7912,-63.89763 66.7327,-119.23624 125.7143,-151.42857 23.0358,-12.57299 47.7526,-21.72557 71.5758,-32.73383 23.82318,-11.00826 46.94586,-24.16998 66.16005,-42.04572 19.21419,-17.87573 34.0707,-40.37956 42.93394,-65.08118 8.86324,-24.70163 11.56389,-51.11887 13.61591,-77.28213 l 11.42857,-145.71428"/><g id="g15784"><path style="fill:#000;fill-opacity:0;fill-rule:nonzero;stroke-width:0;stroke-linecap:round;stroke-linejoin:round;stroke-miterlimit:4;stroke-dasharray:none" id="path11027" d="m 272.81463,683.67934 c -43.73575,-0.84852 -87.16655,36.22915 -83.31473,81.89729 -1.23925,48.4201 50.66862,82.4022 95.61942,75.2232 49.70988,-1.7028 91.94502,-58.0888 70.34598,-105.36826 -13.75034,-31.98432 -48.01284,-52.86583 -82.65067,-51.75223 z"/><g id="g15766"><g id="g15749"><g id="g15733"><g id="g15718"><g id="g15704"><g id="g15691"><g id="g15679"><g id="g15668"><g id="g15658"><g id="g15649"><g id="g15641"><g id="g15634"><g id="g15628"><g id="g15623"><g id="g15619"><g id="g15616"><path style="fill:#ffb380;fill-opacity:1;fill-rule:nonzero;stroke-width:0;stroke-linecap:round;stroke-linejoin:round;stroke-miterlimit:4;stroke-dasharray:none;opacity:.41" id="use11053" d="m 265.6326,676.0789 c -45.66384,0.0384 -91.61981,39.94968 -86.30998,87.84025 -1.52979,46.3305 46.70889,81.9656 90.60686,79.5705 50.42547,2.1493 98.72017,-45.8115 88.43747,-97.08709 -7.5473,-42.70247 -50.6165,-72.00505 -92.73435,-70.32366 z"/></g></g></g></g></g></g></g></g></g></g></g></g></g></g></g></g><g id="g15613"><path style="fill:none;fill-rule:evenodd;stroke:#000;stroke-width:1.90000057;stroke-linecap:butt;stroke-linejoin:miter;stroke-opacity:1;marker-end:url(#marker15607);opacity:.311;stroke-miterlimit:4;stroke-dasharray:none" id="path11087" d="m 262.85714,678.07775 c -8.74607,-25.2827 -4.45632,-54.69806 11.14606,-76.42994 15.60237,-21.73187 42.10198,-35.20169 68.85394,-34.99863 22.81956,0.17321 44.43207,9.4267 65.87244,17.2416 21.44037,7.8149 44.13137,14.18359 66.81025,11.6477 22.67887,-2.53588 44.20278,-14.65613 57.59231,-33.13537 6.69476,-9.23963 11.43922,-19.80143 14.6461,-30.75161 3.20688,-10.95018 4.89383,-22.27832 6.50747,-33.57375 l 2.85715,-20"/></g></g><path style="fill:none;fill-rule:evenodd;stroke:#000;stroke-width:4.49844646;stroke-linecap:butt;stroke-linejoin:miter;stroke-miterlimit:3.5999999;stroke-dasharray:none;stroke-opacity:1;marker-end:url(#marker15152)" id="path15148" d="M 620.05543,683.46833 614.25692,484.20905"/><use id="use15806" width="100%" height="100%" x="0" y="0" transform="matrix(-1,0,0,1,1229.2472,-1.4968655e-4)" xlink:href="#g15784"/><rect style="opacity:.41000001;fill:#ececec;fill-opacity:1;fill-rule:nonzero;stroke:none;stroke-width:4.5999999;stroke-linecap:round;stroke-linejoin:round;stroke-miterlimit:3.5999999;stroke-dasharray:none" id="rect15812" width="256" height="54" x="508" y="896.363"/><rect style="opacity:.41000001;fill:teal;fill-opacity:1;fill-rule:nonzero;stroke:none;stroke-width:4.5999999;stroke-linecap:round;stroke-linejoin:round;stroke-miterlimit:3.5999999;stroke-dasharray:none" id="rect15822" width="98" height="144" x="150" y="288.363"/><text xml:space="preserve" style="font-style:normal;font-weight:400;font-size:112.77127838px;line-height:828.99999619%;font-family:sans-serif;letter-spacing:0;word-spacing:0;fill:#000;fill-opacity:1;stroke:none;stroke-width:1px;stroke-linecap:butt;stroke-linejoin:miter;stroke-opacity:1" id="text15888" x="596.108" y="382.636" transform="scale(0.96536559,1.035877)"><tspan id="tspan15890" x="596.108" y="382.636">A</tspan></text><text xml:space="preserve" style="font-style:normal;font-weight:400;font-size:55.5275383px;line-height:828.99999619%;font-family:sans-serif;letter-spacing:0;word-spacing:0;fill:#000;fill-opacity:1;stroke:none;stroke-width:1px;stroke-linecap:butt;stroke-linejoin:miter;stroke-opacity:1" id="text15892" x="624.023" y="748.561" transform="scale(0.96727991,1.0338269)"><tspan id="tspan15894" x="624.023" y="748.561">x<tspan style="font-size:36.09291077px;baseline-shift:sub" id="tspan15896">t</tspan></tspan></text><text xml:space="preserve" style="font-style:normal;font-weight:400;font-size:40px;line-height:828.99999619%;font-family:sans-serif;letter-spacing:0;word-spacing:0;fill:#000;fill-opacity:1;stroke:none;stroke-width:1px;stroke-linecap:butt;stroke-linejoin:miter;stroke-opacity:1" id="text15908" x="932" y="770.363"><tspan id="tspan15910" x="932" y="770.363">X<tspan style="font-size:65.00002146%;baseline-shift:sub" id="tspan15912">t+1</tspan></tspan></text><use id="use15914" x="0" y="0" xlink:href="#text15908"/><text xml:space="preserve" style="font-style:normal;font-weight:400;font-size:42.83097839px;line-height:828.99999619%;font-family:sans-serif;letter-spacing:0;word-spacing:0;fill:#000;fill-opacity:1;stroke:none;stroke-width:1px;stroke-linecap:butt;stroke-linejoin:miter;stroke-opacity:1" id="text15916" x="282.512" y="665.803" transform="scale(0.86750872,1.1527262)"><tspan id="tspan15918" x="282.512" y="665.803">x<tspan style="font-size:27.8401432px;baseline-shift:sub" id="tspan15920">t-1</tspan></tspan></text><path style="fill:none;fill-rule:evenodd;stroke:#000;stroke-width:2.09977078;stroke-linecap:butt;stroke-linejoin:miter;stroke-miterlimit:4;stroke-dasharray:none;stroke-opacity:1;marker-end:url(#marker20574)" id="path15932" d="m 244.9937,360.36315 218.00722,-1.9995"/><use id="use15938" width="100%" height="100%" x="0" y="0" transform="translate(508.00014,-7.0000016)" xlink:href="#path15932"/><use id="use15940" width="100%" height="100%" x="0" y="0" transform="translate(819.00024,-2.0000006)" xlink:href="#rect15822"/><text xml:space="preserve" style="font-style:normal;font-weight:400;font-size:40px;line-height:828.99999619%;font-family:sans-serif;letter-spacing:0;word-spacing:0;fill:#000;fill-opacity:1;stroke:none;stroke-width:1px;stroke-linecap:butt;stroke-linejoin:miter;stroke-opacity:1" id="text15942" x="164" y="362.363"><tspan id="tspan15944" x="164" y="362.363">h<tspan style="font-size:65.00002146%;baseline-shift:sub" id="tspan15946">t-1</tspan></tspan></text><text xml:space="preserve" style="font-style:normal;font-weight:400;font-size:40px;line-height:828.99999619%;font-family:sans-serif;letter-spacing:0;word-spacing:0;fill:#000;fill-opacity:1;stroke:none;stroke-width:1px;stroke-linecap:butt;stroke-linejoin:miter;stroke-opacity:1" id="text15948" x="980" y="360.363"><tspan id="tspan15950" x="980" y="360.363">h<tspan style="font-size:65.00002146%;baseline-shift:sub" id="tspan15952">t+1</tspan></tspan></text></g></svg>