<svg xmlns="http://www.w3.org/2000/svg" xmlns:xlink="http://www.w3.org/1999/xlink" id="Layer_1" width="1024" height="1024" x="0" y="0" enable-background="new 0 0 1024 1024" version="1.1" viewBox="0 0 1024 1024" xml:space="preserve"><g><path fill="#999" d="M621.273,512.188h-71.75V768H443.211V512.188h-50.562v-90.375h50.562v-58.5C443.211,321.5,463.086,256,550.492,256 l78.75,0.312v87.75h-57.156c-9.312,0-22.562,4.656-22.562,24.594v53.156h81.062L621.273,512.188z M863.586,0h-704 c-88.375,0-160,71.688-160,160v704c0,88.375,71.625,160,160,160h704c88.375,0,160-71.625,160-160V160 C1023.586,71.688,951.961,0,863.586,0"/></g></svg>